<svg width="48" height="49" viewBox="0 0 48 49" fill="none" xmlns="http://www.w3.org/2000/svg">
<path d="M24 3.5C19.8466 3.5 15.7865 4.73163 12.333 7.03914C8.8796 9.34665 6.18798 12.6264 4.59854 16.4636C3.0091 20.3009 2.59323 24.5233 3.40352 28.5969C4.21381 32.6705 6.21386 36.4123 9.15077 39.3492C12.0877 42.2861 15.8295 44.2862 19.9031 45.0965C23.9767 45.9068 28.1991 45.4909 32.0364 43.9015C35.8736 42.312 39.1534 39.6204 41.4609 36.167C43.7684 32.7135 45 28.6534 45 24.5C45 18.9305 42.7875 13.589 38.8493 9.65076C34.911 5.71249 29.5696 3.5 24 3.5ZM24 42.5C20.4399 42.5 16.9598 41.4443 13.9997 39.4665C11.0397 37.4886 8.73256 34.6774 7.37018 31.3883C6.0078 28.0992 5.65134 24.48 6.34587 20.9884C7.04041 17.4967 8.75474 14.2894 11.2721 11.7721C13.7894 9.25473 16.9967 7.5404 20.4884 6.84586C23.98 6.15133 27.5992 6.50779 30.8883 7.87017C34.1774 9.23255 36.9886 11.5397 38.9665 14.4997C40.9443 17.4598 42 20.9399 42 24.5C42 29.2739 40.1036 33.8523 36.7279 37.2279C33.3523 40.6036 28.7739 42.5 24 42.5Z" fill="#F3F4F5"/>
<path d="M22.5 12.5H25.5V29H22.5V12.5ZM24 33.5C23.555 33.5 23.12 33.632 22.75 33.8792C22.38 34.1264 22.0916 34.4778 21.9213 34.889C21.751 35.3001 21.7064 35.7525 21.7932 36.189C21.8801 36.6254 22.0943 37.0263 22.409 37.341C22.7237 37.6557 23.1246 37.87 23.561 37.9568C23.9975 38.0436 24.4499 37.999 24.861 37.8287C25.2722 37.6584 25.6236 37.37 25.8708 37C26.118 36.63 26.25 36.195 26.25 35.75C26.25 35.1533 26.0129 34.581 25.591 34.159C25.169 33.7371 24.5967 33.5 24 33.5Z" fill="#F3F4F5"/>
</svg>